<svg id="Camada_1" xmlns="http://www.w3.org/2000/svg" viewBox="-343.3 211 203.3 95.7"><style>.st0{fill:#a29f9d}</style><path class="st0" d="M-283.5 227v12.1h-2.5V227h-7.7v-2.2h17.8v2.2zM-252.8 239.1v-6h-10.9v6h-2.5v-14.3h2.5v6.1h10.9v-6.1h2.4v14.3zM-225.5 239c-1.7.2-4.3.3-6 .3-1.7 0-3.7-.1-5.5-.3-1.9-.2-2.3-2-2.3-3.5 0-1.3.3-3 1.6-3.4.1 0 .3-.1.3-.1s-.3 0-.3-.1c-1.3-.5-1.6-2.2-1.6-3.5 0-1.5.5-3.3 2.3-3.5 1.7-.2 3.7-.3 5.5-.3a58.79 58.79 0 0 1 7.6.5l-.2 2.2c-.4-.1-1.2-.2-1.5-.2a51.5 51.5 0 0 0-10.2-.1c-1 .1-1.2.8-1.2 1.8s.2 1.7 1.2 1.8c1.1.1 2.4.2 3.8.2h3.5v2.2h-3.5c-1.4 0-2.7.1-3.8.2-1 .1-1.2.8-1.2 1.8s.2 1.7 1.2 1.8a51.5 51.5 0 0 0 10.2-.1c.3 0 1.1-.1 1.5-.2l.2 2.2c-.4.1-1.3.3-1.6.3M-243.4 294.6c-1.1-.1-2.3-.2-3.7-.2h-6v3.7c.4 0 .9.1 1.4.2 1.1.1 2.8.2 4.2.2 1.4 0 3.1-.1 4.2-.2 1-.1 1.2-.9 1.2-1.9 0-1-.3-1.7-1.3-1.8m.1-6.2c-1.1-.1-2.8-.2-4.2-.2-1.4 0-3.1.1-4.2.2-.5 0-1.1.1-1.4.2v3.7h6c1.4 0 2.6-.1 3.7-.2 1-.1 1.2-.8 1.2-1.8.1-1-.1-1.8-1.1-1.9m1.3 12c-1.8.2-3.7.3-5.5.3-1.8 0-3.9-.1-5.6-.2-1-.1-2.1-.2-2.5-.3v-13.5s1.3-.2 2.5-.3a52.53 52.53 0 0 1 11.1 0c1.9.2 2.3 2 2.3 3.5 0 1.3-.3 3-1.6 3.4-.1 0-.3.1-.3.1s.3 0 .3.1c1.3.4 1.6 2.2 1.6 3.4 0 1.5-.4 3.3-2.3 3.5M-214 289.7c-.1-.8-.4-1.2-1.1-1.3-1.2-.1-2.9-.2-4.3-.2s-3.1.1-4.3.2c-.8.1-1.1.5-1.1 1.3 0 .5-.1 2.7-.1 3.6 0 .9 0 3.1.1 3.6.1.8.4 1.2 1.1 1.3 1.2.1 2.9.2 4.3.2s3.1-.1 4.3-.2c.8-.1 1.1-.5 1.1-1.3 0-.5.1-2.7.1-3.6 0-.9-.1-3-.1-3.6m2.4 8.2c-.1 1.2-.9 2.3-2.2 2.5a53.96 53.96 0 0 1-11.2 0c-1.3-.1-2.1-1.3-2.2-2.5-.1-.8-.1-3.8-.1-4.5 0-.8 0-3.8.1-4.5.1-1.2.9-2.3 2.2-2.5a53.96 53.96 0 0 1 11.2 0c1.3.1 2.1 1.3 2.2 2.5.1.8.1 3.8.1 4.5 0 .7 0 3.7-.1 4.5M-185.3 300.5v-2.2c0-.9-.3-1.6-1.3-2l-4.4-1.8-4.4 1.8c-.9.4-1.3 1.1-1.3 2v2.2h-2.5V298c0-1.4.4-2.6 1.9-3.2l3.6-1.5-3.6-1.5c-1.5-.6-1.9-1.8-1.9-3.3v-2.4h2.5v2.2c0 .9.3 1.6 1.3 2l4.4 1.8 4.4-1.8c.9-.4 1.3-1.1 1.3-2v-2.2h2.5v2.4c0 1.4-.4 2.7-1.9 3.3l-3.6 1.5 3.6 1.5c1.5.6 1.9 1.8 1.9 3.2v2.5h-2.5zM-174.4 287.3c0-3.2 1.8-5.8 4.5-5.8 1.8 0 3.2 1.1 3.2 3.1 0 1.3-.8 2.1-1.6 2.7-1 .8-2 1.4-2 2.6 0 1.3 1.4 2.3 4.4 2.3 10.2 0 11.8-11.8 12.1-20.7v-2.7c-2.3 3.5-5.2 6-8.5 6-4.2 0-7.4-2.1-7.4-7.8v-10.2c0-2.1-1-3.7-3.1-3.7-.7 0-1.4.2-2.1.6-1 .6-2-1.4-.7-2 1-.6 2.6-1 4.1-1 4.8 0 8.5 2.2 8.5 7.6V269c0 2.3.7 3.2 2.1 3.2 2.8 0 7.2-5.5 7.2-11.9v-6.8l-3.5-.2c-1.2-.2-1.1-2.1.2-2.1 0 0 3.9.3 6.6.3 1 0 2.2-.1 3.3-.1v17.8c0 3.6-.7 8.5-1.3 11-2.2 8.5-7.6 14.3-17.5 14.3-5.7-.1-8.5-3.3-8.5-7.2M-321.4 262.1c-1.1-5.5 1-10.9 7.1-10.9 5.5 0 10.3 5.1 10.3 11.3 0 6.3-6 12.1-14 12.1-7.4 0-13-4.1-13-13.2v-26.3l-3.5-.2c-1.2-.2-1.1-2.1.1-2.1 0 0 4 .3 6.6.3 1 0 2.3-.1 3.3-.1v28.4c0 6.3 2.3 11.1 6.6 11.1 4.2 0 6.5-4.5 6.5-8.9 0-5.1-2.1-9.8-4.7-9.8-2.7 0-4.2 3.8-3.4 7.9.3 1.3-1.6 1.8-1.9.4M-284.3 251.2c6.4 0 11.4 4.4 11.4 9 0 2.9-1.7 4.2-4.4 4.2h-11c-1.3 0-1.3-2.1 0-2.1h4.7c2.1 0 3.3-1.2 3.3-3.5 0-2.4-1.5-5.5-4.4-5.5-4 0-6.3 3.9-6.3 8.5 0 6 2.6 10.7 7.9 10.7 3.3 0 7.2-2.1 9.2-5.2.7-1.2 2.3.1 1.6 1.3-2.3 3.6-6.2 6.1-12.2 6.1-7.5 0-13.8-5.2-13.8-11.7.1-6.7 6.2-11.8 14-11.8M-248.4 262.1c-.6.2-1.3.3-2.3.3-2.5 0-3.3-.6-5.3-.6-2.5 0-4.7 2.1-4.7 5.3 0 2.9 1.9 5.3 5.6 5.3 3.4 0 6.8-3.1 6.8-7.5l-.1-2.8zm10 12s-4-.3-6.6-.3c-1 0-2.3.1-3.4.1v-2.5c-1.5 1.9-4 3.3-8.4 3.3-6.5 0-10.4-3.4-10.4-7.5s4-7.5 10-7.5c2.5 0 4.1.7 6.3.7 1.7 0 2.6-1.3 2.6-3.3 0-2.4-1.4-3.7-3.6-3.7-1.7 0-2.9.6-3.8 1.5-1.4 1.4-1 2.9-2.8 2.9-1 0-1.7-.7-1.7-1.7 0-2.3 4-4.9 9.5-4.9 5.3 0 9 2.1 9 7.3v13.3l3.5.2c1.2.2 1.1 2.2-.2 2.1M-212.7 253.3l-3.5-.2c-1.2-.2-1.1-2.1.1-2.1 0 0 4 .3 6.5.3.9 0 2.1-.1 3.2-.1v20.5l3.5.2c1.2.2 1.1 2.1-.1 2.1 0 0-4.1-.3-6.5-.3-.9 0-2.1.1-3.2.1v-5.5c-1.8 3.4-4.4 6.3-9 6.3-4.9 0-8.7-2-8.7-8.2v-13.2l-3.5-.2c-1.2-.2-1.1-2.1.1-2.1 0 0 4 .3 6.6.3 1 0 2.3-.1 3.3-.1V268c0 3.4 1.5 4.4 3.3 4.4 4.2 0 7.8-6.5 7.8-12.9l.1-6.2z"/><path class="st0" d="M-179.3 264.4c0-1.4 2-1.4 2 0 0 5.8-3.9 10.2-9.5 10.2-5 0-8.7-2.1-8.7-7.9v-17.6l-6.6-.6c-1.2-.1-1.1-2.1.1-2.1l3.9.3c3.6.3 5.4-2.5 5.6-6 .1-1.2.7-1.9 1.8-1.9 1 0 1.8.8 1.8 1.9v6.4h1.7c6.3 0 9.8-.2 16-.7 1.2-.1 1.4 2 .1 2.1-6.3.6-9.8.8-16.2.8h-1.7v18.8c0 2.6.9 4.1 3.3 4.1 3.4.1 6.4-3.3 6.4-7.8"/></svg>