<svg id="Camada_1" xmlns="http://www.w3.org/2000/svg" viewBox="-343 239 230 82"><style>.st0{fill:#a29f9d}</style><path class="st0" d="M-256.2 262.3c1.5 0 3.6-1.7 3.6-4.4 0-1.4-.7-2.5-2.2-2.5-1.6 0-3.6 1.6-3.6 4.4-.1 1.5.8 2.5 2.2 2.5m.9-11c1.8 0 3.1.5 3.9 1.7h.1c.2-1 1-1.3 1.9-1.3h4.5l-.8 4h-1.1c-.4 0-.7.2-.8.6l-3 15.3h-4.8l1.1-5.6c.1-.7.3-1.2.3-1.2h-.1c-.6.6-1.9 1.6-3.8 1.6-3.5 0-5.6-2.4-5.6-6.1.1-5.5 3.9-9 8.2-9M-243.6 260.6l.8-4.1c0-.1.1-.3.1-.4 0-.3-.1-.4-.5-.4h-1.1l.8-4h4.3c1.2 0 1.8.6 1.8 1.5v.5l-1.3 6.4c0 .2-.1.4-.1.6 0 .7.2 1.3 1.2 1.3 1.9 0 3.4-2 3.8-4l1.3-6.3h4.8l-1.8 9.4c0 .1-.1.3-.1.4 0 .3.1.5.5.5h1.1l-.8 4h-4.3c-1.1 0-1.6-.6-1.6-1.4 0-.4.1-.6.2-.9h-.1c-.9 1.1-2.6 2.7-5.2 2.7-2.2 0-4-1.2-4-4 0-.6.1-1.2.2-1.8M-216.2 257s.1-.4.1-.6c0-.9-.6-1.5-1.5-1.5-1.4 0-2.3 1-2.8 2.1h4.2zm-1.4-5.7c4.1 0 6.1 2.3 6.1 5.6 0 1.3-.5 2.8-.5 2.8h-9v.3c0 1.4 1.1 2.4 2.8 2.4 2.1 0 4.3-1.4 4.3-1.4l1.2 3.6s-2.5 1.9-5.8 1.9c-4.9 0-7.3-2.9-7.3-6.3 0-5.1 3.5-8.9 8.2-8.9M-208 256.6c0-.1.1-.3.1-.4 0-.3-.1-.5-.5-.5h-1.1l.8-4h4.3c1.1 0 1.6.6 1.6 1.5 0 .3-.1.5-.1.7.9-1 2.5-2.5 4.8-2.5 1.6 0 3 .7 3.5 2.4h.1c1-1.3 2.9-2.4 5.1-2.4 2.2 0 3.7 1.1 3.7 3.6 0 .6-.1 1.1-.2 1.7l-.8 4.4c0 .1-.1.3-.1.4 0 .3.1.5.5.5h1.1l-.8 4h-4.3c-1.2 0-1.8-.6-1.8-1.5 0-.2 0-.3.1-.5l1.3-6.5c.1-.3.1-.6.1-.8 0-.7-.3-1-1-1-1.8 0-3 2.1-3.4 4.4l-1.2 5.9h-4.8l1.7-8.5c.1-.3.1-.6.1-.8 0-.7-.3-1-1-1-1.8 0-3 2.2-3.4 4.4l-1.2 5.9h-4.8l1.6-9.4zM-253.9 305.9c1.6 0 3.6-1.6 3.6-4.4 0-1.6-.9-2.5-2.3-2.5-1.5 0-3.6 1.6-3.6 4.4 0 1.4.7 2.5 2.3 2.5m-5.4-11.2c0-.2.1-.4.1-.6 0-.3-.2-.5-.5-.5h-1.1l.8-4h4.3c1.3 0 1.8.4 1.8 1.5 0 .2-.1.5-.1.8l-.6 3.1c-.1.7-.3 1.3-.3 1.3h.1c.9-.9 2.4-1.4 3.8-1.4 3.5 0 5.5 2.4 5.5 6.2 0 5.2-3.9 8.8-7.9 8.8-1.5 0-3.1-.5-4-1.9 0 0 0 .4-.1.8l-.1.8h-4.5l2.8-14.9zM-234.3 300.6s.1-.4.1-.5c0-.9-.6-1.6-1.5-1.6-1.4 0-2.3 1-2.8 2.1h4.2zm-1.4-5.7c4.1 0 6.1 2.3 6.1 5.6 0 1.3-.5 2.8-.5 2.8h-9v.3c0 1.4 1.1 2.4 2.8 2.4 2.1 0 4.3-1.4 4.3-1.4l1.2 3.6s-2.5 1.9-5.8 1.9c-4.9 0-7.3-2.9-7.3-6.3-.1-5.2 3.5-8.9 8.2-8.9M-226 299.9c0-.3 0-.6-.5-.6h-1l.8-4h4.3c1.1 0 1.7.4 1.7 1.3 0 .4-.2 1.4-.4 2h.1c1-1.9 3.1-3.6 5.2-3.6h.6l-.9 4.7s-.4-.1-.9-.1c-1.5 0-4.1.6-4.9 4.5l-1 5.4h-4.8l1.7-9.6zM-205.8 300.6s.1-.4.1-.5c0-.9-.6-1.6-1.5-1.6-1.4 0-2.3 1-2.8 2.1h4.2zm-1.4-5.7c4.1 0 6.1 2.3 6.1 5.6 0 1.3-.5 2.8-.5 2.8h-9v.3c0 1.4 1.1 2.4 2.8 2.4 2.1 0 4.3-1.4 4.3-1.4l1.2 3.6s-2.5 1.9-5.8 1.9c-4.9 0-7.3-2.9-7.3-6.3-.1-5.2 3.4-8.9 8.2-8.9M-197.7 300.1c0-.1.1-.3.1-.4 0-.3-.1-.5-.5-.5h-1.1l.8-4h4.3c1.1 0 1.6.6 1.6 1.5 0 .4-.1.6-.2.9h.1c.9-1.1 2.6-2.7 5.2-2.7 2.3 0 4.2 1.3 4.2 4 0 .5-.1 1.1-.2 1.7l-.8 4.1c0 .1-.1.3-.1.4 0 .3.1.4.5.4h1.1l-.8 4h-4.3c-1.2 0-1.8-.6-1.8-1.5 0-.2 0-.3.1-.5l1.2-6.4c0-.2.1-.4.1-.6 0-.7-.3-1.3-1.3-1.3-1.9 0-3.4 2-3.8 4l-1.3 6.4h-4.8l1.7-9.5zM-180.2 307.5l1.4-7.2c.1-.3.1-.4.1-.6 0-.3-.2-.5-.5-.5h-1.1l.8-4h4.3c1.3 0 1.8.5 1.8 1.5 0 .2 0 .5-.1.8l-1.4 7.2c0 .1-.1.3-.1.4 0 .3.1.4.5.4h1.1l-.8 4h-4.3c-1.2 0-1.8-.6-1.8-1.5 0-.2.1-.3.1-.5M-162.4 294.9c2.3 0 6.2.7 5.6 3.9l-.3 1.4h-4.1l.1-.2c.1-.7-.4-1.1-1.5-1.1-2.3 0-3.7 2.1-3.7 4 0 1.4.8 3 3.2 3s4.1-1.6 4.1-1.6l1.2 3.7s-2 2-6 2c-5 0-7.4-3.2-7.4-6.7-.1-4.2 3.3-8.4 8.8-8.4M-146 300.6s.1-.4.1-.5c0-.9-.6-1.6-1.5-1.6-1.4 0-2.3 1-2.8 2.1h4.2zm-1.4-5.7c4.1 0 6.1 2.3 6.1 5.6 0 1.3-.5 2.8-.5 2.8h-9v.3c0 1.4 1.1 2.4 2.8 2.4 2.1 0 4.3-1.4 4.3-1.4l1.2 3.6s-2.5 1.9-5.8 1.9c-4.9 0-7.3-2.9-7.3-6.3-.1-5.2 3.4-8.9 8.2-8.9M-134.6 301.2c.8-4.6 6.6-5.5 6.6-8.1 0-.9-.8-1.5-1.9-1.5-1.7 0-3.3 1.4-3.3 1.4l-2.5-4s2.9-2.3 6.7-2.3c3.5 0 6.8 2 6.8 5.7 0 5.6-6.6 6.8-7.1 9.3l-.2 1.1h-5.3l.2-1.6zm-.5 3.8h5l-.9 4.8h-5.1l1-4.8zM-242.2 286.7c1.8 0 3.7-2 3.7-4.3 0-1.4-.7-2.6-2.2-2.6-1.8 0-3.7 1.8-3.7 4.3.1 1.7.9 2.6 2.2 2.6m.9-11c1.4 0 3 .4 3.7 1.6h.1s0-.4.1-.6l.2-1.1c.1-.3.1-.4.1-.6 0-.3-.2-.5-.5-.5h-1.1l.8-4h4.3c1.2 0 1.8.5 1.8 1.4 0 .3 0 .6-.1.9l-2.4 12.5c-.1.2-.1.5-.1.6 0 .3.2.4.5.4h1.1l-.8 4h-3.9c-1.2 0-1.6-.6-1.6-1.2 0-.2 0-.6.1-.8-1.2 1.4-2.6 2.4-4.7 2.4-3.5 0-5.5-2.4-5.5-6.3 0-5.1 3.8-8.7 7.9-8.7M-219.7 285.1s1.8 1.9 4.2 1.9c.8 0 1.3-.3 1.3-.8 0-.7-.9-1-1.8-1.3-1.9-.7-4.3-1.7-4.3-4.6 0-3.4 3.3-4.7 6.4-4.7 2.9 0 6.1 1 5.5 3.7l-.2 1.3h-4.1l.1-.3c.1-.7-.5-1.1-1.4-1.1s-1.4.4-1.4.9c0 .8 1.3 1.1 2.2 1.4 1.8.7 3.9 1.6 3.9 4.2 0 3.1-3 4.9-6.3 4.9-4.1 0-6.3-2.5-6.3-2.5l2.2-3zM-205.7 285.1s1.8 1.9 4.2 1.9c.8 0 1.3-.3 1.3-.8 0-.7-.9-1-1.8-1.3-1.9-.7-4.3-1.7-4.3-4.6 0-3.4 3.3-4.7 6.3-4.7 2.9 0 6.1 1 5.5 3.7l-.3 1.3h-4.1l.1-.3c.1-.7-.5-1.1-1.4-1.1s-1.4.4-1.4.9c0 .8 1.3 1.1 2.3 1.4 1.8.7 3.9 1.6 3.9 4.2 0 3.1-3 4.9-6.3 4.9-4.1 0-6.3-2.5-6.3-2.5l2.3-3zM-183.4 281.4s.1-.4.1-.5c0-.9-.6-1.6-1.5-1.6-1.4 0-2.3 1-2.8 2.1h4.2zm-1.4-5.7c4.1 0 6.1 2.3 6.1 5.6 0 1.3-.5 2.8-.5 2.8h-9v.3c0 1.5 1.1 2.4 2.8 2.4 2.1 0 4.3-1.4 4.3-1.4l1.2 3.6s-2.5 1.9-5.8 1.9c-4.9 0-7.3-2.9-7.3-6.3-.1-5.1 3.4-8.9 8.2-8.9M-222.2 271.4c-.4-1.5-2.2-2.1-4.5-1.8-2.1.2-3.6 1.1-3.2 2.6.4 1.5 2.2 2.1 4.4 1.9 2-.2 3.7-1.2 3.3-2.7m-7.9 16.9l1.4-7.2c.1-.3.1-.4.1-.6 0-.3-.2-.5-.5-.5h-1.1l.8-4h4.3c1.3 0 1.8.5 1.8 1.5 0 .2-.1.5-.1.8l-1.4 7.2c0 .1-.1.3-.1.4 0 .3.1.4.5.4h1.1l-.8 4h-4.3c-1.2 0-1.8-.5-1.8-1.5 0-.1 0-.3.1-.5M-176.6 293.9l-.9-1.7h1.2c1.7 0 2.8-.7 2.7-1.4-.1-.9-1.8-.6-2.8-1.2-.7-.4-1.4-.9-1.6-1.9-.4-1.8 1.3-2.8 3.6-2.8 2.1 0 4.5 1 4.9 3.3.5 3.1-2.9 5.7-7.1 5.7M-274.4 263.6c0 3.9-1.5 7.6-4.3 10.4-1.8 1.7-3.8 3-6.1 3.7a15.26 15.26 0 0 0-9.3-27.3c-1.4 0-2.7.2-4 .4 3.2-1.3 6.2-1.9 9-1.9 3.9 0 7.7 1.5 10.4 4.3s4.3 6.5 4.3 10.4m-39.2 20.2h24.5c3.9 0 7.7 1.5 10.4 4.3 2.8 2.8 4.3 6.5 4.3 10.4s-1.5 7.6-4.3 10.4c-2.2 2.2-4.9 3.6-7.9 4.1 4.4-2.8 7.3-7.4 7.3-12.7 0-6.3-2.1-13.5-10.6-14.3-.1.1-15.1-1.2-23.7-2.2m41.9-20.2c0-9.6-7.9-17.5-17.5-17.5-22.4 0-44.6 34.9-44.6 34.9s22.2 34.9 44.6 34.9c9.7 0 17.5-7.8 17.5-17.5 0-9.6-7.8-17.4-17.5-17.5 9.7.2 17.5-7.6 17.5-17.3"/></svg>