<svg id="Layer_1" xmlns="http://www.w3.org/2000/svg" viewBox="0 0 294 113"><style>.st0{fill-rule:evenodd;clip-rule:evenodd;fill:#a29f9d}</style><path class="st0" d="M35.9 52.9c.5-3.1 1.2-6.2 2.1-9.1-8.6-17.2-2.4-29.7 6-34.6 6.6-3.9 15-3.6 20.3.8 2.7 2.3 4.9 5.6 5.1 10.1 7.4.2 12.8 2.7 16.4 6.7 2.5 2.8 4.1 6.2 4.5 9.9.9 8.5-4.2 17.8-15.2 19.9l-.1-.4C85.6 54 90.6 45.1 89.6 36.7c-.3-2.6-1.2-5.2-2.6-7.4-3.5-5.3-10.1-8.5-17.3-8.5h-.1c0 7.8-4.8 11.8-12.7 13.5l-1.5-.7c8.7-1 13.5-5.2 13.4-12.8-6.1-.1-12.2 1.7-17.4 5.6-5.2 3.8-9.7 9.6-12.6 17.3 3 4.8 6.8 8.4 12.1 10.3v.8c-5.2-2-9.4-5.3-12.3-10.2-1.1 3-1.7 6.2-2.2 9.5l-.5-1.2zm32.9-32.8c-.5-9.9-10.7-14.5-19-12.5-4 1-8 3.4-10.8 7.1-5 6.5-6.6 16.7-.6 28.3 3.1-7.3 7.1-12.7 11.9-16.4 5.2-4.1 10.9-6.2 18.5-6.5zM38.5 75.7l.6-.7c1.9 4.8 4.9 9.5 8.8 13.2 0-1.3-.2-5.4.5-6.4s1.9-.6 1.6 1.4c-.5 1.8-.7 3.9-.6 6.3 7.1 5.3 14.8 6.4 21.1 5.5 8.1-1.2 14.9-5.9 17-14.1 1.8-7.1.5-15.9-3.5-18.4l-8.4-5.3.9-.3c14.8 4 21.2 15.2 21 26.2-.3 12.7-9.1 23.2-21.7 25.5-2 .4-4 .5-6 .4-10.7-.5-20.7-7.2-21.8-19.9a37.3 37.3 0 0 1-9.5-13.4zm43.2-16.3c8.9 4.7 13 11 14.5 17.2 1.2 5 .8 10.1-.8 14.4-1.1 3.2-2.8 5.9-4.5 8-2.5 3.1-4.7 4.8-8.2 6.5-3.2 1.5-7.7 3-12.4 2.9-9.8-.2-20.4-6.6-20.8-18.1 6.8 4.9 14.6 6.8 22.9 5.1 3.1-.6 6.1-1.8 8.6-3.7 2.5-1.9 4.4-4.2 5.8-6.8 1.2-2.3 1.8-4.8 2.2-7.4.7-7-1.1-13.8-7.3-18.1z"/><path class="st0" d="M37.2 53.7c3.1 3 4.7 7.6 4.7 12.3 0 3.6-.9 7.2-2.9 10-5.6 7.8-18.3 9-25.3 2.5-3.3-3-5.1-7.6-5.1-12.5 0-4.8 1.8-9.3 5.1-12.3 6.1-5.6 17.4-5.8 23.5 0zM32 56.6c1.8 2.3 2.7 5.9 2.7 9.5 0 2.8-.3 5.8-1.4 7.9-3.2 6-10.6 6.7-14.6 1.7-1.9-2.3-3-5.8-3-9.6 0-3.7.8-7.3 2.7-9.6a8.85 8.85 0 0 1 13.6.1zM118.9 53.7c3.1 3 4.7 7.6 4.7 12.3 0 3.6-.9 7.2-2.9 10-5.6 7.8-18.3 9-25.3 2.5-3.3-3-5.1-7.6-5.1-12.5 0-4.8 1.8-9.3 5.1-12.3 6.2-5.6 17.5-5.8 23.5 0zm-5.1 2.9c1.8 2.3 2.7 5.9 2.7 9.5 0 2.8-.3 5.8-1.4 7.9-3.2 6-10.6 6.7-14.6 1.7-1.9-2.3-3-5.8-3-9.6 0-3.7.8-7.3 2.7-9.6 3.3-4.2 10.1-4.2 13.6.1zM282.1 53.7c3.1 3 4.7 7.6 4.7 12.3 0 3.6-.9 7.2-2.9 10-5.6 7.8-18.3 9-25.3 2.5-3.3-3-5.1-7.6-5.1-12.5 0-4.8 1.8-9.3 5.1-12.3 6.1-5.6 17.4-5.8 23.5 0zm-5.2 2.9c1.8 2.3 2.7 5.9 2.7 9.5 0 2.8-.3 5.8-1.4 7.9-3.2 6-10.6 6.7-14.6 1.7-1.9-2.3-3-5.8-3-9.6 0-3.7.8-7.3 2.7-9.6a8.85 8.85 0 0 1 13.6.1zM149.9 50.3h6.9v31.5h-6.9V50.3zM241.4 50.3h7v31.5h-7V50.3zM238.3 50.3v4c-3.4-.9-6.2-.7-7.8.6-.8.7-1.4 1.7-1.6 3-.1.8-.1 1.5-.1 2.2v21.6h-7V61.1c0-3.4 1.1-7 3.9-9.1 2.9-2.2 7.3-2.6 12.6-1.7zM146.1 81.9l-.9-3.5c-3.4.9-6.2.7-7.8-.6-.8-.7-1.4-1.7-1.6-3-.1-.8-.1-1.5-.1-2.2V54.4h10v-4.1h-10v-5.4c.1-4.1-2.6-5.3-7-4.8v31.5c0 3.4 1.1 7 3.9 9.1 3 2.2 7.8 2.5 13.5 1.2zM187.1 81c-6.4 2.7-15.5 1.9-19.9-1.6-3.5-2.8-5.4-7.3-5.4-13.4 0-4.8 1.8-9.3 5.1-12.3 4.9-4.6 13.3-5.5 19.3-3.2v4.2c-4-2.1-9.9-2.2-13.5.9-2.7 2.3-3.7 6.2-3.7 10.1 0 3.7.9 7.4 3 9.8 2 2.4 5.3 3.2 8.6 3 2-.1 3.8-.5 5.4-1.5l1.1 4zM191.8 55.2V51c9.2-2.8 14-6.6 17.3-10.8h5.6c-2.3 3.8-6.6 7-12 9.4 3.2 0 6 .5 8.1 1.6 2.8 1.4 4.7 3.9 5.3 7.5.3 1.5.2 2.9.2 4.4v19.1h-1.1c-3.3 0-5.2-1.1-5.5-3.8-2.8 3.1-6.5 4.3-9.9 4.3-3.5 0-6.4-.9-8.3-2.6a8.7 8.7 0 0 1-2.7-6.4c-.1-2.5.8-5.1 2.6-7.1.7-.7 1.5-1.3 2.5-1.8 2.7-1.5 6-2.3 9.9-2.3h5.7v-2c0-1.5-.3-2.9-1.1-4.1-.7-1-1.7-1.9-2.8-2.4-3.2-1.4-8-.7-13.8 1.2zm17.7 11.1h-4.6c-2.6 0-5.6.4-7.5 2-1.4 1.1-2 2.8-1.9 5 .1 2.4 1.1 4.1 2.8 5 .8.4 1.7.6 2.6.6 3.3 0 6.9-2.1 8.1-5.3.3-.7.5-1.5.5-2.5v-4.8zM54.3 37.7H53.1 53h-.2-.1-.4H52h-.1-.1-.7l-.1-.1-.1-.1-.1-.1-.1-.1-.1-.1c-.1-.1-.1-.2-.1-.2-.4-.7-.5-1.6-.4-2.7h17c4.3 0 8.6 1 11.7 3.2 3.1 2.3 4.6 5.7 4.6 9.2 0 2.7-.9 5.4-2.9 7.5-1.3 1.3-2.9 2.4-4.7 3.2 2.1.6 4.1 1.6 5.7 2.8 3.4 2.6 5.1 6.7 5.1 10.8 0 3.2-1 6.3-3.1 8.7-6.1 6.8-19.8 7.8-27.3 2.2-2.6-1.9-4.3-4.6-5.1-7.6-.7-2.5-1-6.2-1-7.6V41.5c1.8-.1 3.6-.2 5 .6 1.9 1.1 2.2 3.4 2.2 5.4v18.7c0 3.9.9 7.1 2.3 9.5 1.1 1.9 2.7 3.3 4.8 4.1 3.3 1.3 8.2 1 11.1-1.1 3.2-2.4 3.5-6.3 3.5-8.7 0-2.4-.6-6.1-3.8-8.3-1.6-1.1-3.9-2-7-2h-6.4V55h7c.6 0 1.3-.3 1.7-.4 1-.2 1.9-.7 2.8-1.3 2.3-1.8 3-5.6 2.8-7.9-.3-3.9-2.6-7.5-11-7.5H54.3v-.2z"/></svg>