<?xml version="1.0" encoding="utf-8"?>
<!-- Generator: Adobe Illustrator 19.0.0, SVG Export Plug-In . SVG Version: 6.00 Build 0)  -->
<svg version="1.1" id="Camada_1" xmlns="http://www.w3.org/2000/svg" xmlns:xlink="http://www.w3.org/1999/xlink" x="0px" y="0px"
	 viewBox="0 0 786 203" enable-background="new 0 0 786 203" xml:space="preserve">
<g id="XMLID_6_">
	<g id="XMLID_1_">
		<path id="XMLID_2_" fill="#D27A38" d="M254.29,56.21h-248c-0.55,0-1-0.45-1-1v-48c0-0.55,0.45-1,1-1h248c0.55,0,1,0.45,1,1v48
			C255.29,55.76,254.84,56.21,254.29,56.21z"/>
		<path id="XMLID_3_" fill="#DB9641" d="M204.29,126.21h-98c-0.55,0-1-0.45-1-1v-48c0-0.55,0.45-1,1-1h98c0.55,0,1,0.45,1,1v48
			C205.29,125.76,204.84,126.21,204.29,126.21z"/>
		<path id="XMLID_4_" fill="#E3AE55" d="M154.29,196.21h-48c-0.55,0-1-0.45-1-1v-48c0-0.55,0.45-1,1-1h48c0.55,0,1,0.45,1,1v48
			C155.29,195.76,154.84,196.21,154.29,196.21z"/>
	</g>
	<g id="XMLID_7_">
		<path id="XMLID_8_" fill="#D27A38" d="M279.5,84.76v12.21h14.99c1.2,0,2.21,0.38,3.02,1.15c0.81,0.76,1.21,1.75,1.21,2.95
			c0,1.02-0.41,1.92-1.21,2.71c-0.81,0.79-1.82,1.18-3.02,1.18H279.5v16.17c0,1.2-0.43,2.21-1.28,3.02
			c-0.86,0.81-1.86,1.21-3.02,1.21c-1.3,0-2.35-0.39-3.16-1.18c-0.81-0.79-1.21-1.8-1.21-3.05V81.02c0-1.2,0.4-2.21,1.21-3.02
			c0.81-0.81,1.81-1.21,3.02-1.21h22.56c1.2,0,2.21,0.38,3.02,1.15c0.81,0.76,1.21,1.75,1.21,2.95c0,1.02-0.41,1.92-1.21,2.71
			c-0.81,0.79-1.82,1.18-3.02,1.18H279.5z"/>
		<path id="XMLID_10_" fill="#D27A38" d="M345.85,77.89c0.79,0.74,1.18,1.71,1.18,2.92c0,1.2-0.39,2.16-1.18,2.88
			c-0.79,0.72-1.8,1.08-3.05,1.08H331.9v36.37c0,1.2-0.44,2.21-1.32,3.02c-0.88,0.81-1.97,1.21-3.26,1.21s-2.36-0.4-3.19-1.21
			c-0.83-0.81-1.25-1.82-1.25-3.02V84.76h-10.9c-1.25,0-2.27-0.37-3.05-1.11c-0.79-0.74-1.18-1.71-1.18-2.92
			c0-1.16,0.4-2.1,1.22-2.85c0.81-0.74,1.81-1.11,3.02-1.11h30.81C344.04,76.78,345.06,77.15,345.85,77.89z"/>
		<path id="XMLID_12_" fill="#515870" d="M306.98,152.08c0,0.97-0.35,1.92-1.04,2.85c-0.74,0.97-1.69,1.46-2.85,1.46
			c-0.79,0-1.57-0.21-2.36-0.63c-2.27-1.06-4.72-1.6-7.36-1.6c-3.24,0-6.06,0.68-8.47,2.05c-2.41,1.37-4.26,3.29-5.55,5.76
			c-1.3,2.48-1.94,5.31-1.94,8.5c0,5.46,1.47,9.6,4.41,12.42c2.94,2.82,6.79,4.23,11.56,4.23c2.82,0,5.27-0.53,7.36-1.6
			c0.83-0.37,1.57-0.56,2.22-0.56c1.2,0,2.22,0.51,3.05,1.53c0.69,0.88,1.04,1.83,1.04,2.85c0,0.74-0.19,1.41-0.56,2.01
			c-0.37,0.6-0.9,1.06-1.6,1.39c-3.61,1.8-7.45,2.71-11.52,2.71c-4.54,0-8.7-0.96-12.49-2.88c-3.79-1.92-6.83-4.75-9.09-8.5
			c-2.27-3.75-3.4-8.28-3.4-13.6c0-4.72,1.08-8.95,3.23-12.7s5.12-6.67,8.92-8.78c3.79-2.1,8.07-3.16,12.84-3.16
			c4.12,0,7.93,0.9,11.45,2.71C306.26,149.29,306.98,150.47,306.98,152.08z"/>
		<path id="XMLID_14_" fill="#515870" d="M355.98,183.07c-2.04,3.82-4.85,6.84-8.43,9.06c-3.59,2.22-7.62,3.33-12.11,3.33
			c-4.49,0-8.53-1.11-12.11-3.33c-3.59-2.22-6.38-5.24-8.4-9.06s-3.02-8.02-3.02-12.6c0-4.58,1.01-8.78,3.02-12.6
			c2.01-3.82,4.81-6.84,8.4-9.06c3.58-2.22,7.62-3.33,12.11-3.33c4.49,0,8.52,1.11,12.11,3.33c3.58,2.22,6.4,5.24,8.43,9.06
			c2.04,3.82,3.05,8.02,3.05,12.6C359.03,175.06,358.02,179.25,355.98,183.07z M348.14,162.04c-1.25-2.52-2.98-4.52-5.21-6
			c-2.22-1.48-4.72-2.22-7.5-2.22c-2.82,0-5.33,0.73-7.53,2.19c-2.2,1.46-3.91,3.46-5.14,6c-1.23,2.54-1.84,5.37-1.84,8.47
			c0,3.1,0.61,5.92,1.84,8.47c1.23,2.54,2.94,4.55,5.14,6c2.2,1.46,4.71,2.19,7.53,2.19c2.78,0,5.27-0.74,7.5-2.22
			c2.22-1.48,3.96-3.48,5.21-6c1.25-2.52,1.87-5.33,1.87-8.43C350.01,167.38,349.39,164.57,348.14,162.04z"/>
		<path id="XMLID_17_" fill="#515870" d="M406.57,147.3c0.69,0.74,1.04,1.67,1.04,2.78v40.46c0,1.2-0.41,2.21-1.21,3.02
			c-0.81,0.81-1.82,1.21-3.02,1.21c-0.65,0-1.28-0.1-1.91-0.31c-0.62-0.21-1.08-0.5-1.35-0.87l-25.47-32.34v29.63
			c0,1.11-0.36,2.04-1.08,2.78c-0.72,0.74-1.66,1.11-2.81,1.11c-1.11,0-2.01-0.37-2.71-1.11c-0.69-0.74-1.04-1.67-1.04-2.78v-40.46
			c0-1.2,0.4-2.21,1.21-3.02c0.81-0.81,1.82-1.21,3.02-1.21c0.69,0,1.38,0.14,2.05,0.42c0.67,0.28,1.17,0.65,1.49,1.11l25.26,32.2
			v-29.84c0-1.11,0.36-2.04,1.08-2.78c0.72-0.74,1.63-1.11,2.74-1.11S405.88,146.56,406.57,147.3z"/>
		<path id="XMLID_19_" fill="#515870" d="M424.76,194.21c-2.59-0.83-5.02-2.24-7.29-4.23c-1.25-1.11-1.87-2.34-1.87-3.68
			c0-1.06,0.39-2,1.18-2.81c0.79-0.81,1.74-1.21,2.85-1.21c0.88,0,1.67,0.28,2.36,0.83c1.85,1.53,3.65,2.64,5.41,3.33
			c1.76,0.69,3.84,1.04,6.25,1.04c2.59,0,4.82-0.58,6.7-1.74c1.87-1.16,2.81-2.59,2.81-4.3c0-2.08-0.93-3.71-2.78-4.89
			c-1.85-1.18-4.79-2.07-8.81-2.67c-10.13-1.48-15.2-6.2-15.2-14.16c0-2.92,0.76-5.45,2.29-7.6c1.53-2.15,3.61-3.79,6.25-4.93
			c2.64-1.13,5.58-1.7,8.81-1.7c2.92,0,5.66,0.44,8.22,1.32c2.57,0.88,4.71,2.04,6.42,3.47c1.34,1.06,2.01,2.29,2.01,3.68
			c0,1.07-0.39,2-1.18,2.81c-0.79,0.81-1.71,1.21-2.78,1.21c-0.69,0-1.32-0.21-1.87-0.62c-1.2-0.97-2.88-1.86-5.03-2.67
			c-2.15-0.81-4.08-1.21-5.8-1.21c-2.91,0-5.17,0.54-6.77,1.63c-1.6,1.09-2.39,2.51-2.39,4.27c0,1.99,0.82,3.49,2.46,4.51
			c1.64,1.02,4.22,1.85,7.74,2.5c3.98,0.69,7.16,1.59,9.54,2.67c2.38,1.09,4.17,2.57,5.38,4.44c1.2,1.87,1.8,4.36,1.8,7.46
			c0,2.91-0.82,5.47-2.46,7.67c-1.64,2.2-3.83,3.89-6.56,5.07c-2.73,1.18-5.67,1.77-8.81,1.77
			C430.31,195.46,427.35,195.04,424.76,194.21z"/>
		<path id="XMLID_21_" fill="#515870" d="M494.43,147.3c0.79,0.74,1.18,1.71,1.18,2.92s-0.39,2.16-1.18,2.88
			c-0.79,0.72-1.8,1.08-3.05,1.08h-10.9v36.37c0,1.2-0.44,2.21-1.32,3.02c-0.88,0.81-1.97,1.21-3.26,1.21c-1.3,0-2.36-0.4-3.19-1.21
			c-0.83-0.81-1.25-1.82-1.25-3.02v-36.37h-10.9c-1.25,0-2.27-0.37-3.05-1.11c-0.79-0.74-1.18-1.71-1.18-2.91
			c0-1.16,0.4-2.11,1.21-2.85c0.81-0.74,1.82-1.11,3.02-1.11h30.81C492.63,146.19,493.65,146.56,494.43,147.3z"/>
		<path id="XMLID_23_" fill="#515870" d="M542.43,189.42c0.35,0.6,0.52,1.23,0.52,1.87c0,0.83-0.28,1.6-0.83,2.29
			c-0.69,0.83-1.76,1.25-3.19,1.25c-1.11,0-2.13-0.25-3.05-0.76c-3.33-1.9-5-5.76-5-11.59c0-1.67-0.54-2.98-1.63-3.96
			c-1.09-0.97-2.65-1.46-4.68-1.46h-12.98v13.46c0,1.25-0.34,2.27-1.01,3.05c-0.67,0.79-1.56,1.18-2.67,1.18
			c-1.34,0-2.51-0.4-3.5-1.21c-1-0.81-1.49-1.82-1.49-3.02v-40.11c0-1.2,0.4-2.21,1.21-3.02c0.81-0.81,1.82-1.21,3.02-1.21h19.99
			c2.41,0,4.67,0.65,6.8,1.94c2.13,1.3,3.83,3.08,5.1,5.34c1.27,2.27,1.91,4.81,1.91,7.63c0,2.31-0.62,4.57-1.87,6.77
			c-1.25,2.2-2.87,3.95-4.86,5.24c2.91,2.04,4.51,4.77,4.79,8.19c0.14,0.74,0.21,1.46,0.21,2.15c0.18,1.43,0.37,2.46,0.56,3.09
			c0.18,0.63,0.6,1.1,1.25,1.42C541.6,188.34,542.08,188.82,542.43,189.42z M529.21,168.74c0.79-0.79,1.43-1.84,1.94-3.16
			c0.51-1.32,0.76-2.74,0.76-4.27c0-1.29-0.25-2.49-0.76-3.57c-0.51-1.09-1.16-1.95-1.94-2.6c-0.79-0.65-1.6-0.97-2.43-0.97h-15.2
			v15.75h15.2C527.61,169.92,528.42,169.53,529.21,168.74z"/>
		<path id="XMLID_26_" fill="#515870" d="M587.64,147.3c0.74,0.79,1.11,1.8,1.11,3.05v25.12c0,3.84-0.81,7.24-2.43,10.2
			c-1.62,2.96-3.89,5.27-6.8,6.94c-2.92,1.67-6.25,2.5-9.99,2.5s-7.09-0.83-10.03-2.5c-2.94-1.67-5.22-3.98-6.84-6.94
			c-1.62-2.96-2.43-6.36-2.43-10.2v-25.12c0-1.2,0.42-2.21,1.25-3.02c0.83-0.81,1.9-1.21,3.19-1.21c1.11,0,2.08,0.41,2.92,1.21
			c0.83,0.81,1.25,1.82,1.25,3.02v25.12c0,2.22,0.49,4.2,1.46,5.93c0.97,1.74,2.28,3.07,3.92,3.99c1.64,0.93,3.41,1.39,5.31,1.39
			c1.99,0,3.85-0.46,5.59-1.39c1.74-0.92,3.12-2.26,4.16-3.99c1.04-1.73,1.56-3.71,1.56-5.93v-25.12c0-1.25,0.35-2.27,1.04-3.05
			c0.69-0.79,1.64-1.18,2.85-1.18C585.93,146.12,586.9,146.51,587.64,147.3z"/>
		<path id="XMLID_28_" fill="#515870" d="M634.14,147.3c0.79,0.74,1.18,1.71,1.18,2.92s-0.39,2.16-1.18,2.88
			c-0.79,0.72-1.8,1.08-3.05,1.08h-10.9v36.37c0,1.2-0.44,2.21-1.32,3.02c-0.88,0.81-1.97,1.21-3.26,1.21c-1.3,0-2.36-0.4-3.19-1.21
			c-0.83-0.81-1.25-1.82-1.25-3.02v-36.37h-10.9c-1.25,0-2.27-0.37-3.05-1.11c-0.79-0.74-1.18-1.71-1.18-2.91
			c0-1.16,0.4-2.11,1.21-2.85c0.81-0.74,1.82-1.11,3.02-1.11h30.81C632.33,146.19,633.35,146.56,634.14,147.3z"/>
		<path id="XMLID_30_" fill="#515870" d="M682.86,183.07c-2.04,3.82-4.85,6.84-8.43,9.06c-3.59,2.22-7.62,3.33-12.11,3.33
			c-4.49,0-8.53-1.11-12.11-3.33c-3.59-2.22-6.38-5.24-8.4-9.06s-3.02-8.02-3.02-12.6c0-4.58,1.01-8.78,3.02-12.6
			c2.01-3.82,4.81-6.84,8.4-9.06c3.58-2.22,7.62-3.33,12.11-3.33c4.49,0,8.52,1.11,12.11,3.33c3.58,2.22,6.4,5.24,8.43,9.06
			c2.04,3.82,3.05,8.02,3.05,12.6C685.91,175.06,684.9,179.25,682.86,183.07z M675.02,162.04c-1.25-2.52-2.98-4.52-5.21-6
			c-2.22-1.48-4.72-2.22-7.5-2.22c-2.82,0-5.33,0.73-7.53,2.19c-2.2,1.46-3.91,3.46-5.14,6c-1.23,2.54-1.84,5.37-1.84,8.47
			c0,3.1,0.61,5.92,1.84,8.47c1.23,2.54,2.94,4.55,5.14,6c2.2,1.46,4.71,2.19,7.53,2.19c2.78,0,5.27-0.74,7.5-2.22
			c2.22-1.48,3.96-3.48,5.21-6c1.25-2.52,1.87-5.33,1.87-8.43C676.89,167.38,676.27,164.57,675.02,162.04z"/>
		<path id="XMLID_33_" fill="#515870" d="M733.42,189.42c0.35,0.6,0.52,1.23,0.52,1.87c0,0.83-0.28,1.6-0.83,2.29
			c-0.69,0.83-1.76,1.25-3.19,1.25c-1.11,0-2.13-0.25-3.05-0.76c-3.33-1.9-5-5.76-5-11.59c0-1.67-0.54-2.98-1.63-3.96
			c-1.09-0.97-2.65-1.46-4.68-1.46h-12.98v13.46c0,1.25-0.34,2.27-1.01,3.05c-0.67,0.79-1.56,1.18-2.67,1.18
			c-1.34,0-2.51-0.4-3.5-1.21c-1-0.81-1.49-1.82-1.49-3.02v-40.11c0-1.2,0.4-2.21,1.21-3.02c0.81-0.81,1.82-1.21,3.02-1.21h19.99
			c2.41,0,4.67,0.65,6.8,1.94c2.13,1.3,3.83,3.08,5.1,5.34c1.27,2.27,1.91,4.81,1.91,7.63c0,2.31-0.62,4.57-1.87,6.77
			c-1.25,2.2-2.87,3.95-4.86,5.24c2.91,2.04,4.51,4.77,4.79,8.19c0.14,0.74,0.21,1.46,0.21,2.15c0.18,1.43,0.37,2.46,0.56,3.09
			c0.18,0.63,0.6,1.1,1.25,1.42C732.6,188.34,733.07,188.82,733.42,189.42z M720.2,168.74c0.79-0.79,1.43-1.84,1.94-3.16
			c0.51-1.32,0.76-2.74,0.76-4.27c0-1.29-0.25-2.49-0.76-3.57c-0.51-1.09-1.16-1.95-1.94-2.6c-0.79-0.65-1.6-0.97-2.43-0.97h-15.2
			v15.75h15.2C718.6,169.92,719.41,169.53,720.2,168.74z"/>
		<path id="XMLID_36_" fill="#515870" d="M780.02,191.02c0,1.2-0.39,2.19-1.18,2.95c-0.79,0.76-1.69,1.14-2.71,1.14
			c-0.83,0-1.59-0.25-2.26-0.76c-0.67-0.51-1.19-1.2-1.56-2.08l-3.61-8.4h-20.68l-3.61,8.47c-0.32,0.88-0.82,1.56-1.49,2.05
			c-0.67,0.49-1.4,0.73-2.19,0.73c-1.2,0-2.12-0.32-2.74-0.97s-0.94-1.53-0.94-2.64c0-0.42,0.07-0.86,0.21-1.32l17.28-41.5
			c0.37-0.92,0.92-1.64,1.67-2.15c0.74-0.51,1.57-0.72,2.5-0.63c0.83,0,1.61,0.24,2.33,0.73c0.72,0.49,1.24,1.17,1.56,2.05
			l17.07,40.67C779.91,189.96,780.02,190.51,780.02,191.02z M751.43,175.89h13.88l-7.01-16.24L751.43,175.89z"/>
	</g>
</g>
</svg>
