<?xml version="1.0" encoding="iso-8859-1"?>
<!-- Generator: Adobe Illustrator 19.0.0, SVG Export Plug-In . SVG Version: 6.00 Build 0)  -->
<svg xmlns="http://www.w3.org/2000/svg" xmlns:xlink="http://www.w3.org/1999/xlink" version="1.1" id="Capa_1" x="0px" y="0px" viewBox="0 0 512 512" style="enable-background:new 0 0 512 512;" xml:space="preserve" width="512px" height="512px">
<g>
	<g>
		<path d="M196,96c-5.52,0-10,4.48-10,10s4.48,10,10,10s10-4.48,10-10S201.52,96,196,96z" fill="#db9641"/>
	</g>
</g>
<g>
	<g>
		<path d="M482,236h-96v-30c0-16.542-13.458-30-30-30h-30v-20h10c16.542,0,30-13.458,30-30V86c0-16.542-13.458-30-30-30H176    c-16.542,0-30,13.458-30,30v40c0,16.542,13.458,30,30,30h10v20h-30c-16.542,0-30,13.458-30,30v30H30c-16.542,0-30,13.458-30,30    c0,4.495,0,175.174,0,180c0,5.523,4.478,10,10,10h492c5.522,0,10-4.477,10-10c0-4.826,0-175.505,0-180    C512,249.458,498.542,236,482,236z M386,296h43v100h-43V296z M176,136c-5.514,0-10-4.486-10-10V86c0-5.514,4.486-10,10-10h160    c5.514,0,10,4.486,10,10v40c0,5.514-4.486,10-10,10C334.485,136,177.43,136,176,136z M306,156v20H206v-20H306z M146,206    c0-5.514,4.486-10,10-10c8.562,0,192.753,0,200,0c5.514,0,10,4.486,10,10v10H146V206z M146,236h220v160h-20V286    c0-5.523-4.478-10-10-10H176c-5.522,0-10,4.477-10,10v110h-20V236z M326,296v100h-60V296H326z M246,296v100h-60V296H246z M20,266    c0-5.514,4.486-10,10-10h96v20H20V266z M126,296v100H83V296H126z M20,296h43v100H20V296z M492,436H20v-20h472V436z M492,396h-43    V296h43V396z M492,276H386v-20h96c5.514,0,10,4.486,10,10V276z" fill="#db9641"/>
	</g>
</g>
<g>
	<g>
		<path d="M316,96h-80c-5.522,0-10,4.477-10,10s4.478,10,10,10h80c5.522,0,10-4.477,10-10S321.522,96,316,96z" fill="#db9641"/>
	</g>
</g>
<g>
</g>
<g>
</g>
<g>
</g>
<g>
</g>
<g>
</g>
<g>
</g>
<g>
</g>
<g>
</g>
<g>
</g>
<g>
</g>
<g>
</g>
<g>
</g>
<g>
</g>
<g>
</g>
<g>
</g>
</svg>
