<?xml version="1.0" encoding="iso-8859-1"?>
<!-- Generator: Adobe Illustrator 19.0.0, SVG Export Plug-In . SVG Version: 6.00 Build 0)  -->
<svg xmlns="http://www.w3.org/2000/svg" xmlns:xlink="http://www.w3.org/1999/xlink" version="1.1" id="Capa_1" x="0px" y="0px" viewBox="0 0 480 480" style="enable-background:new 0 0 480 480;" xml:space="preserve" width="512px" height="512px">
<g>
	<g>
		<path d="M472,312h-16V104c0-4.418-3.582-8-8-8H64V56c0-4.418-3.582-8-8-8H32C14.327,48,0,62.327,0,80v320    c0,17.673,14.327,32,32,32h416c4.418,0,8-3.582,8-8v-32h16c4.418,0,8-3.582,8-8v-64C480,315.582,476.418,312,472,312z M16,80    c0-8.837,7.163-16,16-16h16v304H32c-5.619-0.009-11.141,1.474-16,4.296V80z M440,416H32c-8.837,0-16-7.163-16-16s7.163-16,16-16    h24c4.418,0,8-3.582,8-8V112h376v200H296c-0.08,0-0.152,0.056-0.232,0.056c-1.159,0.021-2.3,0.294-3.344,0.8l-64,32    c-3.954,1.971-5.562,6.774-3.591,10.729c0.775,1.556,2.036,2.816,3.591,3.591l64,32c1.112,0.548,2.336,0.83,3.576,0.824h144V416z     M416,328v48h-16v-48H416z M304,344v-16h80v16H304z M384,360v16h-80v-16H384z M288,332.944v38.112L249.888,352L288,332.944z     M464,376h-32v-48h32V376z" fill="#db9641"/>
	</g>
</g>
<g>
	<g>
		<path d="M184,200h80c4.418,0,8-3.582,8-8v-48c0-4.418-3.582-8-8-8h-80c-4.418,0-8,3.582-8,8v16h-24v-16c0-4.418-3.582-8-8-8H96    c-4.418,0-8,3.582-8,8v48c0,4.418,3.582,8,8,8h16v24H96c-4.418,0-8,3.582-8,8v48c0,4.418,3.582,8,8,8h48c4.418,0,8-3.582,8-8v-16    h24v16c0,4.418,3.582,8,8,8h80c4.418,0,8-3.582,8-8v-48c0-4.418-3.582-8-8-8h-80c-4.418,0-8,3.582-8,8v16h-24v-16    c0-4.418-3.582-8-8-8h-16v-24h16c4.418,0,8-3.582,8-8v-16h24v16C176,196.418,179.582,200,184,200z M192,152h64v32h-64V152z     M192,240h64v32h-64V240z M136,240v32h-32v-32H136z M136,184h-32v-32h32V184z" fill="#db9641"/>
	</g>
</g>
<g>
	<g>
		<path d="M392,248v-8.88c21.645-22.091,21.283-57.547-0.808-79.192c-22.091-21.645-57.547-21.283-79.192,0.808    c-21.333,21.773-21.333,56.61,0,78.384V248h-16v16h112v-16H392z M381.824,226.576c-0.996,1.114-2.054,2.172-3.168,3.168    c-1.69,1.517-2.656,3.681-2.656,5.952V248h-16v-20.688l21.656-21.656l-11.312-11.312L352,212.688l-18.344-18.344l-11.312,11.312    L344,227.312V248h-16v-12.296c0.002-2.274-0.964-4.441-2.656-5.96c-16.471-14.722-17.889-40.009-3.168-56.48    c14.722-16.471,40.009-17.889,56.48-3.168C395.127,184.818,396.545,210.105,381.824,226.576z" fill="#db9641"/>
	</g>
</g>
<g>
	<g>
		<rect x="88" y="344" width="112" height="16" fill="#db9641"/>
	</g>
</g>
<g>
	<g>
		<rect x="88" y="376" width="112" height="16" fill="#db9641"/>
	</g>
</g>
<g>
	<g>
		<rect x="120" y="312" width="80" height="16" fill="#db9641"/>
	</g>
</g>
<g>
	<g>
		<rect x="88" y="312" width="16" height="16" fill="#db9641"/>
	</g>
</g>
<g>
</g>
<g>
</g>
<g>
</g>
<g>
</g>
<g>
</g>
<g>
</g>
<g>
</g>
<g>
</g>
<g>
</g>
<g>
</g>
<g>
</g>
<g>
</g>
<g>
</g>
<g>
</g>
<g>
</g>
</svg>
