<svg id="Layer_1" xmlns="http://www.w3.org/2000/svg" viewBox="0 0 354.3 110"><style>.st1{fill:#fff}</style><path d="M349 7.3H8v78.1S56.7 113.3 136.2 99s102.4-21.5 152.5-10.7 60.3 15.9 60.3 15.9V7.3z" fill="#a29f9d"/><path class="st1" d="M20.4 21.1h19.8c10.4 0 14.1 7.6 14.1 13.1 0 9.3-6.2 13.6-15 13.6h-7v11.6H20.4V21.1zm11.8 17.6h4.6c3.1 0 6.3-.2 6.3-4.1 0-3.5-2.7-3.7-5.6-3.7h-5.3v7.8zM80.9 20.2c11.7 0 19.4 8.4 19.4 20.1 0 11.7-7.8 20.1-19.4 20.1S61.5 52 61.5 40.3c0-11.7 7.8-20.1 19.4-20.1zm0 30.6c3 0 7.6-2 7.6-10.5s-4.6-10.5-7.6-10.5-7.6 2-7.6 10.5 4.6 10.5 7.6 10.5zM109.8 21.1h11.8v28.5h17v9.8h-28.8V21.1zM148.1 21.1h11.8v38.3h-11.8V21.1zM179.8 46.6c0 1 .2 1.8.4 2.5.9 2.3 3.4 2.8 5.6 2.8 1.9 0 4.9-.6 4.9-3.5 0-2-1.7-2.5-8.3-4.4-6.1-1.7-13-3.4-13-11.1 0-8.9 7.6-12.7 15.5-12.7 8.3 0 15.7 3.2 16 12.5h-11.2c.2-1.4-.4-2.4-1.4-3.1-1-.7-2.3-1-3.5-1-1.6 0-4.2.4-4.2 2.6.2 2.7 5.7 3.3 11.1 4.8 5.4 1.5 10.8 4 10.8 11.1 0 10-9.2 13.2-17.7 13.2-4.3 0-16.8-1.6-16.9-13.8h11.9zM210.7 21.1h11.8v13.3h11.1V21.1h11.8v38.3h-11.8V44.3h-11.1v15.2h-11.8V21.1zM274.2 20.2c11.7 0 19.4 8.4 19.4 20.1 0 11.7-7.8 20.1-19.4 20.1-11.7 0-19.4-8.4-19.4-20.1 0-11.7 7.8-20.1 19.4-20.1zm0 30.6c3 0 7.6-2 7.6-10.5s-4.6-10.5-7.6-10.5-7.6 2-7.6 10.5 4.6 10.5 7.6 10.5zM303.1 21.1h19.8c10.4 0 14.1 7.6 14.1 13.1 0 9.3-6.2 13.6-15 13.6h-7v11.6h-11.8V21.1zm11.8 17.6h4.6c3.1 0 6.3-.2 6.3-4.1 0-3.5-2.7-3.7-5.6-3.7h-5.3v7.8z"/></svg>