<svg xmlns="http://www.w3.org/2000/svg" viewBox="0 0 438 96.9"><path d="M361.3 63.2V42.4c0-5.4-1.7-9.5-6.7-9.5-4.9 0-7.5 4.9-7.5 9v21.4h-5.6V15.5h5.6v19.4c1.4-2.2 4-4.2 8.6-4.2 6.8 0 11.2 4.8 11.2 11.3v21.1h-5.6zm-130.4 0h5.6V15.5h-5.6v47.7zm-51.2-32.4c-4.1 0-7 1.9-8.6 4.4V32h-5.6v31.3h5.6V41.7c0-4.7 3.3-8.8 7.6-8.8 4.5 0 6.7 3.6 6.7 8.8v21.5h5.5V42.1c0-6.6-4.8-11.3-11.2-11.3zM395 31.9v21.7c0 5.4-2.4 8.6-7.1 8.6-4.8 0-7.2-3.2-7.2-8.6V31.9h-5.6l.1 19.3c0 7.6 4.5 13.2 12.6 13.2 8.3 0 12.8-5.5 12.8-13.2V31.9H395zm-244.1 0v21.7c0 5.4-2.4 8.6-7.1 8.6-4.8 0-7.2-3.2-7.2-8.6V31.9H131l.1 19.3c0 7.6 4.5 13.2 12.6 13.2 8.3 0 12.8-5.5 12.8-13.2V31.9h-5.6zm116 12v19.3h-5.5V60c-1.3 1.9-4.2 4-7.7 4-6.6 0-9.9-4-9.9-8.5 0-6.7 4.5-8 10.5-9.8 5.1-1.5 7.4-2.3 7.4-6.6 0-3.5-2.2-6-6.7-6s-6.8 2-8.2 5.3l-2-.8c1.8-4.5 5.6-6.6 10.3-6.6 6.7-.1 11.8 5.1 11.8 12.9zm-5.5 1.2c-1.2.9-2.7 1.5-6.2 2.5-4.4 1.2-5.8 3-5.8 7.6 0 3.4 1 6.5 4.7 6.6 4.2 0 7.3-3.6 7.3-6.9v-9.8zm-44.8-2.8c0-7.2-2.2-9.4-6.6-9.4-4.3 0-6.5 2.2-6.5 9.4v2.2c0 6.9 2.2 8.7 6.5 8.7s6.6-1.9 6.6-8.7v-2.2zm8-10.5v2.1h-5.7c2.3 2.1 3.5 5.3 3.5 9.1 0 7.6-4.4 12.4-12.3 12.4-4.2.1-7.7-.3-7.7 2.8 0 2.2 4.1 2 8.4 2.2 6.4.3 12.8.9 12.8 8.5 0 5.9-6.6 10.1-13.4 10.1-4.1 0-7.7-1.3-9.9-3.3l1.4-1.6c1.9 1.7 4.9 2.7 8.5 2.7 4.9 0 9.2-2.1 9.2-5.9 0-4.5-2.8-4.6-8.8-5-5.3-.4-10.6-1.4-10.6-6.5 0-2.6 1.1-4.6 3.9-5.6-3.8-2-6-5.6-6-10.8 0-7.3 4.3-12.2 12.2-12.2 2.2 0 4.2.4 5.7 1h8.8zm191.5-11.7h-5.6V32H407v2.1h3.5v18.1c0 8.1 3.8 12 10 12 1.6 0 2.8-.2 3.7-.5l-.3-1.9c-.7.2-1.4.3-2.1.3-4.2 0-5.7-2.9-5.7-8.5V34.1h7.4V32h-7.4V20.1zM85.2 47.8a36.4 36.4 0 1 0-72.8 0 36.4 36.4 0 0 0 72.8 0zM123.1 38.4c0-3-3.9-7.2-11-7.2-6.4 0-10.6 4.4-10.6 9.9 0 6.6 5.3 8.3 10.6 9.1 4.5.7 8.5 2 8.5 6.5 0 3.5-3.6 5.7-8.1 5.7-3.3 0-5.5-1.1-7.5-3.1l-1.6 1.6c2.4 2.4 5.6 3.7 9.1 3.7 6.3 0 11.9-4.2 11.9-10.1 0-5.1-1.8-9-12.2-10.5-4.3-.6-8-1.4-7.8-5.2.1-2.9 3.3-5.5 7.8-5.5 2.4 0 5.3.8 6.5 2l-.2.1a3.22 3.22 0 0 0 1.2 6.2c1.9 0 3.4-1.5 3.4-3.2zm171.5 0c0-3-3.9-7.2-11-7.2-6.4 0-10.6 4.4-10.6 9.9 0 6.6 5.3 8.3 10.6 9.1 4.5.7 8.5 2 8.5 6.5 0 3.5-3.6 5.7-8.1 5.7-3.3 0-5.5-1.1-7.5-3.1l-1.6 1.6c2.4 2.4 5.6 3.7 9.1 3.7 6.3 0 11.9-4.2 11.9-10.1 0-5.1-1.8-9-12.2-10.5-4.3-.6-8-1.4-7.8-5.2.1-2.9 3.3-5.5 7.8-5.5 2.4 0 5.3.8 6.5 2l-.2.1a3.22 3.22 0 0 0 1.2 6.2c1.9 0 3.4-1.5 3.4-3.2zm27.8 0c0-3-3.9-7.2-11-7.2-6.4 0-10.6 4.4-10.6 9.9 0 6.6 5.3 8.3 10.6 9.1 4.5.7 8.5 2 8.5 6.5 0 3.5-3.6 5.7-8.1 5.7-3.3 0-5.5-1.1-7.5-3.1l-1.6 1.6c2.4 2.4 5.6 3.7 9.1 3.7 6.3 0 11.9-4.2 11.9-10.1 0-5.1-1.8-9-12.2-10.5-4.3-.6-8-1.4-7.8-5.2.1-2.9 3.3-5.5 7.8-5.5 2.4 0 5.3.8 6.5 2l-.2.1a3.22 3.22 0 0 0 1.2 6.2c1.9 0 3.4-1.5 3.4-3.2z" fill="#a29f9d"/></svg>